# xmcd CD database file
#
# Track frame offsets:
#	150
#	14584
#	26040
#	40019
#	53863
#	70103
#	81437
#	96026
#	112556
#	129266
#	144944
#	159074
#	173874
#	187013
#
# Disc length: 2718 seconds
#
# Revision: 0
# Processed by: cddbd v1.5.2PL0 Copyright (c) Steve Scherf et al.
# Submitted via: CDex 1.70beta2
#
DISCID=a90a9c0e
DTITLE=Varios - Saudades do Sertao
DYEAR=1900
DGENRE=Country
TTITLE0=Peão Carreiro and Zé Paulo - Berrante da Saudade
TTITLE1=Pena Branca and Xavantinho - Calix Bento
TTITLE2=Tonico and Tinoco - Chico Mineiro
TTITLE3=As Marcianas - Colcha de Retalhos
TTITLE4=Alan and Aladim - D￳i Cotovelo
TTITLE5=Mensageiro and Mexicano - Espinho na Cama
TTITLE6=Zico and Zeca - João Ninguém
TTITLE7=Louren￧o and Lourival - Mágoa de Boiadeiro
TTITLE8=Abel and Caim - Meu Fraco é Mulher
TTITLE9=Ataíde and Alexandre - Ô de Casa, ô de Fora
TTITLE10=Mário Zan - Polca no.1
TTITLE11=Suzamar - Pombinha Branca (Voa Colomba)
TTITLE12=Teodoro and Sampaio - Se a Casa Cair
TTITLE13=Gaetano Donizetti - Serenata Suburbana
EXTD=
EXTT0=
EXTT1=
EXTT2=
EXTT3=
EXTT4=
EXTT5=
EXTT6=
EXTT7=
EXTT8=
EXTT9=
EXTT10=
EXTT11=
EXTT12=
EXTT13=
PLAYORDER=
